<svg width="61" height="62" viewBox="0 0 61 62" fill="none" xmlns="http://www.w3.org/2000/svg">
<rect y="0.5" width="61" height="61" rx="10" fill="#F68D2C"/>
<path d="M44.1411 16.7601C43.3911 16.0149 42.2811 15.7393 41.2461 16.0309L17.1111 22.8107C16.0191 23.1053 15.2451 23.9468 15.0366 25.0143C14.8236 26.1022 15.5676 27.4847 16.5396 28.0622L24.0861 32.5422C24.8601 33.003 25.8591 32.8878 26.4996 32.2636L35.1411 23.8622C35.5761 23.4232 36.2961 23.4232 36.7311 23.8622C37.1661 24.2836 37.1661 24.9705 36.7311 25.408L28.0746 33.8095C27.4326 34.4336 27.3126 35.402 27.7851 36.1559L32.3961 43.5205C32.9361 44.3941 33.8661 44.8914 34.8861 44.8914C35.0061 44.8914 35.1411 44.8913 35.2611 44.8753C36.4311 44.7309 37.3611 43.9566 37.7061 42.8628L44.8611 19.5747C45.1761 18.583 44.8911 17.5039 44.1411 16.7601Z" fill="white"/>
<path fill-rule="evenodd" clip-rule="evenodd" d="M16.5157 37.5114C16.2277 37.5114 15.9397 37.4049 15.7207 37.1905C15.2812 36.7633 15.2812 36.072 15.7207 35.6447L17.7682 33.6526C18.2077 33.2268 18.9202 33.2268 19.3597 33.6526C19.7977 34.0799 19.7977 34.7726 19.3597 35.1999L17.3107 37.1905C17.0917 37.4049 16.8037 37.5114 16.5157 37.5114ZM22.1575 39.2503C21.8695 39.2503 21.5815 39.1438 21.3625 38.9295C20.923 38.5022 20.923 37.8109 21.3625 37.3836L23.41 35.3915C23.8495 34.9657 24.562 34.9657 25.0015 35.3915C25.4395 35.8188 25.4395 36.5115 25.0015 36.9388L22.9525 38.9295C22.7335 39.1438 22.4455 39.2503 22.1575 39.2503ZM22.5381 44.4536C22.7571 44.668 23.0451 44.7745 23.3331 44.7745C23.6211 44.7745 23.9091 44.668 24.1281 44.4536L26.1771 42.463C26.6151 42.0357 26.6151 41.343 26.1771 40.9157C25.7376 40.4899 25.0251 40.4899 24.5856 40.9157L22.5381 42.9078C22.0986 43.3351 22.0986 44.0263 22.5381 44.4536Z" fill="white"/>
</svg>
