<svg width="61" height="62" viewBox="0 0 61 62" fill="none" xmlns="http://www.w3.org/2000/svg">
<rect y="0.5" width="61" height="61" rx="10" fill="#F68D2C"/>
<path d="M30.03 16C21.315 16 15 23.11 15 31C15 33.52 15.735 36.115 17.025 38.485C17.265 38.875 17.295 39.37 17.13 39.835L16.125 43.195C15.9 44.005 16.59 44.605 17.355 44.365L20.385 43.465C21.21 43.195 21.855 43.54 22.6215 44.005C24.8115 45.295 27.54 45.955 30 45.955C37.44 45.955 45 40.21 45 30.955C45 22.975 38.55 16 30.03 16Z" fill="white"/>
<path fill-rule="evenodd" clip-rule="evenodd" d="M29.9709 32.9352C28.9059 32.9202 28.0509 32.0652 28.0509 31.0002C28.0509 29.9502 28.9209 29.0802 29.9709 29.0952C31.0359 29.0952 31.8909 29.9502 31.8909 31.0152C31.8909 32.0652 31.0359 32.9352 29.9709 32.9352ZM23.0553 32.9351C22.0053 32.9351 21.1353 32.0651 21.1353 31.0151C21.1353 29.9501 21.9903 29.0951 23.0553 29.0951C24.1203 29.0951 24.9753 29.9501 24.9753 31.0151C24.9753 32.0651 24.1203 32.9201 23.0553 32.9351ZM34.9656 31.0152C34.9656 32.0652 35.8206 32.9352 36.8856 32.9352C37.9506 32.9352 38.8056 32.0652 38.8056 31.0152C38.8056 29.9502 37.9506 29.0952 36.8856 29.0952C35.8206 29.0952 34.9656 29.9502 34.9656 31.0152Z" fill="#F68D2C"/>
</svg>
